<?xml version="1.0" encoding="UTF-8"?>
<svg id="Layer_2" data-name="Layer 2" xmlns="http://www.w3.org/2000/svg" viewBox="0 0 350 350.26">
  <defs>
    <style>
      .cls-1 {
        fill: #f7bb24;
      }
    </style>
  </defs>
  <g id="Layer_1-2" data-name="Layer 1">
    <path class="cls-1" d="M86.56,101.06c22.95,19.81,43.7,42.76,60.99,67.91-27.98.31-55.96.94-83.94,1.57-9.43,0-21.69-1.57-24.84-10.69-.94-3.46-.31-7.23.31-10.69,3.46-16.35,10.06-31.75,19.18-45.27,3.14-4.4,6.6-8.8,11.95-9.75,5.97-1.26,11.63,2.83,16.35,6.92M56.38,152.62c20.75,2.2,41.81,3.14,63.19,2.83-13.83-16.35-29.55-30.81-47.16-43.38-8.49,11.95-14.15,26.09-16.03,40.56M296.88,169.91c-28.92,0-57.85-.31-86.46-.31-5.97,0-4.09-9.43,0-13.83,16.66-18.86,33.64-36.78,51.56-54.39,2.52-2.83,5.34-5.66,9.12-6.6,9.43-3.14,18.55,5.34,23.58,14.15,9.12,14.46,14.15,31.44,14.78,48.73,0,3.46-.31,6.92-2.52,9.43-2.52,2.52-6.6,2.83-10.06,2.83M230.23,155.13c20.75.63,41.18,0,61.93-1.89-.31-15.72-6.29-31.44-16.66-43.07-15.09,15.09-30.18,29.87-45.27,44.96M250.04,91.94c-20.75,21.38-42.13,41.81-64.13,61.93-3.46-31.44-4.4-62.88-2.83-94.31,0-3.77.31-7.86,2.52-11,4.4-6.6,14.46-5.97,22.64-3.77,12.58,3.46,24.84,8.17,36.15,14.46,6.92,3.46,14.15,8.8,14.46,16.35.31,6.29-4.4,11.63-8.8,16.35M198.79,60.5c-.63,21.06-.94,42.13-.63,63.19,14.46-16.03,29.24-31.44,44.33-46.84-12.58-9.43-27.98-15.4-43.7-16.35M203.19,190.34c33.95-6.6,69.48-7.23,104.06-2.2,6.29,21.06-4.09,42.76-14.15,62.25-3.46,6.29-7.86,13.52-15.09,14.15-5.66.31-10.69-3.77-14.78-7.86-21.69-20.43-41.81-42.76-60.05-66.33M271.41,243.79c1.26,1.26,2.83,2.52,4.4,2.52,3.14,0,5.03-3.14,5.97-6.29,4.4-12.58,8.8-25.15,13.2-37.41-21.06-1.89-42.76-2.2-63.82-.94,12.26,15.09,25.78,29.24,40.24,42.13M147.23,190.34c-18.86,22.95-38.98,44.64-60.36,65.08-5.34,4.72-11.95,10.06-18.55,7.86-4.72-1.57-7.55-5.66-10.06-9.75-7.55-13.2-13.83-26.72-18.23-41.18-1.89-5.34-3.46-11.63-1.26-16.98,3.77-8.17,14.46-9.75,23.58-10.37,28.29-.94,56.9.63,84.88,5.34M72.1,246.3c16.03-14.78,32.07-29.55,48.1-44.33-21.38-.94-43.07-1.26-64.45-.63,2.2,15.72,7.86,31.12,16.35,44.96M165.15,208.89c.94,27.35,1.89,54.7,2.83,82.05.31,6.29.31,13.2-3.77,18.23-6.29,7.86-18.55,5.97-27.98,2.83-14.78-5.34-28.29-12.26-40.87-21.38-2.52-1.57-5.34-3.77-6.29-6.6-2.52-6.29,2.83-12.58,7.55-17.29,20.12-19.49,40.24-38.98,60.36-58.48,2.52-1.26,5.97-.94,8.17.63M150.38,232.78c-14.46,16.03-29.24,31.75-43.7,47.79,13.2,8.49,28.29,14.78,43.7,17.61,1.57-21.69,1.57-43.7,0-65.39M182.76,215.81c0-1.89,0-4.09,1.26-5.66,3.14-4.4,9.75-.63,13.52,2.83,17.29,16.66,34.58,33.32,51.56,49.67,4.72,4.4,9.43,9.12,10.06,15.4,1.57,11.95-11.95,19.81-23.26,24.21-8.17,2.83-16.03,5.97-23.89,9.12-9.43,3.46-22.01,5.97-27.35-2.52-1.89-3.46-1.89-7.55-1.89-11.32v-81.74M243.43,279.94c-15.4-16.03-30.81-31.75-46.21-47.79.31,22.01.94,43.7,1.89,65.39,15.72-2.2,31.12-8.17,44.33-17.61M162.95,151.67c-23.89-19.49-46.21-40.56-67.28-63.19-3.14-3.46-6.6-7.55-6.6-12.26.31-5.66,5.03-10.06,9.75-13.2,14.15-9.75,30.5-16.66,47.47-19.49,5.03-.94,11.32-1.26,15.09,2.2,3.46,3.14,4.09,7.86,4.4,12.26,3.14,31.12,2.2,62.88-2.83,93.69M151.32,60.82c-16.66-1.57-33.95,5.97-44.33,19.18,14.46,13.83,28.61,28.29,42.76,43.07,2.2-20.75,2.52-41.5,1.57-62.25M21.8,88.8C56.06,28.44,128.69-7.72,197.54,1.4c73.88,9.75,138.01,71.68,150.27,145.24,12.26,73.57-27.98,152.79-94.94,186.11-66.65,33.32-154.36,17.92-205.92-36.47C-4.3,242.22-14.99,153.87,21.8,88.8M34.06,251.96c34.27,62.88,114.12,96.52,182.97,77.65,63.51-17.61,112.55-77.97,116.95-143.67,4.09-65.39-36.47-131.73-97.14-157.51C176.16,2.97,100.39,19.63,56.06,68.36,12.05,117.09,2.62,194.12,34.06,251.96"/>
  </g>
</svg>