<?xml version="1.0" encoding="UTF-8"?>
<svg id="Layer_2" xmlns="http://www.w3.org/2000/svg" viewBox="0 0 444.05 217.78">
  <defs>
    <style>
      .cls-1 {
        fill: #101616;
      }

      .cls-2 {
        fill: #fcbe2c;
      }
    </style>
  </defs>
  <g id="Layer_1-2" data-name="Layer_1">
    <g id="_x3C_Expanded_x3E_">
      <g>
        <rect class="cls-1" x="82.79" y="125.35" width="96.91" height="13.4" transform="translate(61.73 -40.66) rotate(22.9)"/>
        <path class="cls-1" d="M164.67,142h279.38v27.58c0,26.6-21.59,48.19-48.19,48.19h-183c-26.6,0-48.2-21.6-48.2-48.2v-27.58h0Z"/>
        <path class="cls-1" d="M16.35,77.97h88.91c3.2,0,5.79,2.6,5.79,5.79v27.04c0,3.2-2.6,5.79-5.79,5.79H16.35c-10.66,0-19.31-8.65-19.31-19.31h0c0-10.66,8.65-19.31,19.31-19.31Z" transform="translate(42.11 -13.36) rotate(22.9)"/>
      </g>
      <g>
        <path class="cls-2" d="M228.42,134.54l-3.53-3.55c.28-.29,7.28-7.96-2.94-25.15-6.31-10.62-2.66-15.38.27-19.21,2.95-3.86,5.51-7.19-1-18.36l4.32-2.52c7.58,13,4.78,18.52.65,23.91-2.72,3.56-4.52,5.91.06,13.62,12.35,20.76,2.59,30.84,2.17,31.26Z"/>
        <path class="cls-2" d="M291.93,68.79l-3.53-3.55c.28-.29,7.28-7.96-2.94-25.15-6.31-10.62-2.66-15.38.27-19.21,2.95-3.86,5.51-7.19-1-18.36l4.32-2.52c7.58,13,4.78,18.52.65,23.91-2.72,3.56-4.52,5.91.06,13.62,12.34,20.76,2.59,30.84,2.17,31.26Z"/>
        <path class="cls-2" d="M376.57,110.42l-3.53-3.55c.28-.29,7.28-7.96-2.94-25.15-6.31-10.62-2.66-15.38.27-19.21,2.95-3.86,5.51-7.19-1-18.36l4.32-2.52c7.58,13,4.78,18.52.65,23.91-2.72,3.56-4.52,5.91.06,13.62,12.34,20.76,2.59,30.84,2.17,31.26Z"/>
        <g>
          <circle class="cls-1" cx="249.74" cy="34.14" r="15.93"/>
          <path class="cls-1" d="M249.74,52.56c-10.16,0-18.42-8.27-18.42-18.43s8.27-18.43,18.42-18.43,18.42,8.27,18.42,18.43-8.27,18.43-18.42,18.43ZM249.74,20.71c-7.4,0-13.42,6.02-13.42,13.43s6.02,13.43,13.42,13.43,13.42-6.02,13.42-13.43-6.02-13.43-13.42-13.43Z"/>
        </g>
        <g>
          <circle class="cls-1" cx="337.98" cy="18.54" r="15.93"/>
          <path class="cls-1" d="M337.98,36.97c-10.16,0-18.42-8.27-18.42-18.42S327.82.12,337.98.12s18.43,8.27,18.43,18.43-8.27,18.42-18.43,18.42ZM337.98,5.12c-7.4,0-13.42,6.02-13.42,13.43s6.02,13.42,13.42,13.42,13.43-6.02,13.43-13.42-6.02-13.43-13.43-13.43Z"/>
        </g>
        <g>
          <circle class="cls-1" cx="297.07" cy="103.56" r="15.93"/>
          <path class="cls-1" d="M297.07,121.98c-10.16,0-18.42-8.27-18.42-18.43s8.27-18.43,18.42-18.43,18.43,8.27,18.43,18.43-8.27,18.43-18.43,18.43ZM297.07,90.13c-7.4,0-13.42,6.02-13.42,13.43s6.02,13.43,13.42,13.43,13.43-6.02,13.43-13.43-6.02-13.43-13.43-13.43Z"/>
        </g>
      </g>
    </g>
  </g>
</svg>