<?xml version="1.0" encoding="UTF-8"?>
<svg id="Layer_2" xmlns="http://www.w3.org/2000/svg" viewBox="0 0 444.05 217.78">
  <defs>
    <style>
      .cls-1 {
        fill: #101616;
      }

      .cls-2 {
        fill: #fcbe2c;
      }
    </style>
  </defs>
  <g id="Layer_1-2" data-name="Layer_1">
    <g>
      <g>
        <rect class="cls-1" x="82.79" y="125.35" width="96.91" height="13.4" transform="translate(61.73 -40.66) rotate(22.9)"/>
        <path class="cls-1" d="M164.67,142h279.38v27.58c0,26.6-21.59,48.19-48.19,48.19h-183c-26.6,0-48.2-21.6-48.2-48.2v-27.58h0Z"/>
        <path class="cls-1" d="M16.35,77.97h88.91c3.2,0,5.79,2.6,5.79,5.79v27.04c0,3.2-2.6,5.79-5.79,5.79H16.35c-10.66,0-19.31-8.65-19.31-19.31h0c0-10.66,8.65-19.31,19.31-19.31Z" transform="translate(42.11 -13.36) rotate(22.9)"/>
      </g>
      <g>
        <g>
          <path class="cls-2" d="M262.8,149.3l3.22,14.29-.21,1.4h-1.83l-3.28-11.76c-.29-1.02-.52-1.83-.71-2.41-.19-.58-.36-1.09-.53-1.51h3.33ZM265.59,164.98l-.21-1.4,3.65-14.29h2.79l-.81,1.67-3.65,14.02h-1.77ZM271.82,149.3l3.76,14.29-.21,1.4h-1.83l-3.71-14.02-.81-1.67h2.79ZM275.15,164.98l-.21-1.4,3.22-14.29h3.33c-.17.44-.35.94-.53,1.5-.18.57-.42,1.37-.71,2.42l-3.33,11.76h-1.77Z"/>
          <path class="cls-2" d="M296.47,164.98h-3.22v-6.82h-6.34v6.82h-3.22c.08-.43.12-1.04.14-1.84.01-.79.02-1.72.02-2.78v-6.45c0-1.06,0-1.99-.02-2.78-.01-.79-.06-1.41-.14-1.84h3.22v6.45h6.34v-6.45h3.22c-.08.43-.13,1.04-.14,1.84-.01.79-.02,1.72-.02,2.78v6.45c0,1.06,0,1.99.02,2.78.01.79.06,1.41.14,1.84Z"/>
          <path class="cls-2" d="M302.11,164.98h-3.2c.19-.44.39-.93.59-1.47.2-.54.47-1.33.81-2.34l3.97-11.87h3.82l3.97,11.87c.34,1,.61,1.78.81,2.34.21.55.4,1.05.59,1.48h-3.15l-1.19-3.81h-5.84l-1.18,3.81ZM308.41,158.86l-2.21-7.07-2.19,7.07h4.4Z"/>
          <path class="cls-2" d="M314.68,149.3h12.62v2.69c-.39-.09-.79-.15-1.2-.18-.41-.02-.84-.04-1.27-.04h-2.33v8.78c0,1,.01,1.89.04,2.66.02.77.08,1.36.18,1.77h-3.49c.09-.41.15-1,.18-1.77.02-.77.04-1.66.04-2.66v-8.78h-2.29c-.43,0-.85.01-1.27.04-.42.03-.82.08-1.2.18v-2.69Z"/>
          <path class="cls-2" d="M330.58,150.1v-1.4c0-.4.19-.79.56-1.16.38-.37.87-.56,1.48-.56s1.1.21,1.46.63c.36.42.53.96.53,1.63s-.11,1.27-.34,1.89c-.22.62-.53,1.2-.9,1.73-.38.53-.79.99-1.23,1.38l-1.56-.75c.57-.6.99-1.2,1.28-1.8.29-.6.44-1.13.44-1.58h-1.72Z"/>
          <path class="cls-2" d="M347.77,150l-.48,2.85c-.84-.42-1.58-.73-2.21-.93s-1.33-.3-2.08-.3c-.67,0-1.22.18-1.65.55-.43.37-.65.77-.65,1.22,0,.31.08.58.25.81s.49.46.97.68,1.19.48,2.13.77c1.43.44,2.53,1.02,3.28,1.71.75.7,1.13,1.61,1.13,2.75,0,1.02-.26,1.92-.78,2.7s-1.22,1.38-2.09,1.81c-.87.43-1.84.65-2.9.65-1.12,0-2.17-.14-3.14-.41s-1.75-.62-2.34-1.04l.54-2.95c.77.62,1.56,1.07,2.4,1.35.83.28,1.68.42,2.55.42.47,0,.9-.08,1.32-.25.41-.17.74-.41,1-.74.25-.32.38-.71.38-1.16,0-.3-.09-.58-.27-.84s-.53-.52-1.05-.79c-.52-.27-1.3-.57-2.34-.9-1.12-.36-1.98-.75-2.57-1.18s-.99-.91-1.2-1.43c-.21-.52-.32-1.1-.32-1.74,0-.48.1-.98.31-1.51s.53-1.03.98-1.49c.44-.46,1.01-.84,1.7-1.13.69-.29,1.52-.43,2.49-.43.92,0,1.73.08,2.45.23.72.15,1.46.4,2.22.74Z"/>
        </g>
        <g>
          <path class="cls-2" d="M240.36,195.85c0-2.78-.13-7.24-.38-13.36-.25-6.12-.49-9.35-.7-9.68,0-.67.26-1.19.79-1.55.19-.12.46-.22.81-.31.35-.08.67-.13.95-.13.14-.02.44-.04.9-.04.55,0,.95.09,1.19.27.24.18.36.5.36.95,0,.26-.1.46-.29.59-.19.13-.43.2-.72.2l-.36-.04h-.5c-.67,0-1.01.13-1.01.4,0,1.25.08,2.88.25,4.9.14,1.68.24,3.28.29,4.79.17-.05.49-.13.95-.23.47-.11.82-.16,1.06-.16.26,0,.49.11.68.34.19.23.29.49.29.77,0,.34-.16.58-.47.72-.05.02-.16.08-.34.16-.18.08-.41.14-.7.16-.22.02-.58.06-1.08.11h-.4c0,1.44.12,3.4.36,5.87.22,2.59.32,4.55.32,5.87l-.04.14-.04.07c.02.1.04.25.04.47,0,.31-.11.56-.32.74-.22.18-.5.27-.86.27-.7,0-1.04-.77-1.04-2.3Z"/>
          <path class="cls-2" d="M251.99,198.48c-.53-.43-.98-1.02-1.37-1.76-.7-1.3-1.21-3.07-1.55-5.33-.24-1.56-.42-3.36-.54-5.4l-.04-1.91v-1.94c-.02-.62-.04-1.38-.04-2.27,0-1.44.06-2.71.18-3.82.1-1.15.34-2.29.72-3.42.38-.98.94-1.68,1.66-2.09.43-.19.86-.29,1.3-.29,1.27,0,2.28.5,3.02,1.51.82,1.13,1.36,2.39,1.62,3.78.38,1.68.6,3.29.65,4.82.1,1.7.14,3.31.14,4.82v2.05c0,.41-.06,1.18-.18,2.3-.1.89-.14,1.64-.14,2.27v.14c-.14.67-.22,1.46-.22,2.38,0,.67-.14,1.37-.43,2.09-.29.72-.7,1.33-1.22,1.84-.53.58-1.13.86-1.8.86s-1.24-.22-1.76-.65ZM255.05,195.82c.29-.79.5-1.76.63-2.9.13-1.14.25-2.43.34-3.87.05-.62.07-1.43.07-2.41l-.04-3.31c-.05-1.3-.19-2.92-.43-4.86-.19-1.66-.55-3.12-1.08-4.39-.24-.6-.54-1.07-.9-1.4-.36-.34-.74-.5-1.15-.5-.6,0-1.04.47-1.33,1.4-.36.98-.6,2.06-.72,3.24-.14,1.27-.23,2.48-.25,3.64l-.04,1.19c-.02.34-.04.79-.04,1.37v.14c0,1.61.17,3.59.5,5.94.38,3.19.95,5.46,1.69,6.8.48.84.98,1.26,1.51,1.26.48,0,.89-.44,1.22-1.33Z"/>
          <path class="cls-2" d="M267.14,197.51v-.11c-.07-1.27-.29-2.69-.65-4.25-.36-1.56-.89-3.44-1.58-5.65-.53-1.66-.97-3.14-1.33-4.46v14.18c0,.38-.07.67-.2.85-.13.18-.39.27-.77.27-.29,0-.52-.09-.68-.27-.17-.18-.25-.41-.25-.7v-.29l.07-10.58c.05-3.12.07-6.64.07-10.55v-4.43c0-.29.06-.49.18-.59.12-.11.37-.16.76-.16.6,0,1.15.11,1.66.34.5.23.94.55,1.3.95.74.84,1.22,1.85,1.44,3.02.1.48.14,1.03.14,1.66,0,.36-.03.76-.09,1.19-.06.43-.1.71-.13.83-.05.24-.16.6-.32,1.08-.17.48-.28.79-.32.94l-.43,1.01-.36.94c.02.86.17,1.96.45,3.28.28,1.32.58,2.54.92,3.67.24.79.67,2.11,1.3,3.96l1.04,3.17v.07c0,.41-.04.76-.11,1.04-.07.38-.32.58-.76.58-.46,0-.9-.32-1.33-.97ZM264.73,180.01l.54-3.1c.02-.12.04-.29.04-.5,0-.7-.13-1.5-.4-2.41-.14-.43-.33-.8-.56-1.1-.23-.3-.46-.46-.7-.49l-.07,3.6c-.07,1.61-.11,2.86-.11,3.74,0,.84.01,1.39.04,1.66.34-.34.74-.8,1.22-1.4Z"/>
          <path class="cls-2" d="M279.4,197.87c-.35-.22-.52-.52-.52-.9.53-.53.79-1.93.79-4.21,0-1.37-.11-3.36-.32-5.98-.24-2.5-.36-4.46-.36-5.9l.07-1.98c.02-.58.04-1.24.04-1.98,0-.67-.12-1.52-.36-2.56-.29-1.08-.43-1.84-.43-2.27,0-.84.92-1.26,2.77-1.26h.54c1.3,0,2.42.4,3.38,1.19.77.67,1.42,1.64,1.94,2.92.36.86.67,2.06.94,3.6.14,1.34.22,2.4.22,3.17v2.84c-.05.1-.07.19-.07.29,0,.19.01.34.04.43.02.1.04.22.04.36,0,.77-.11,1.69-.34,2.75-.23,1.07-.56,2.15-.99,3.26-1.08,2.64-2.29,4.51-3.64,5.62-.79.62-1.62.94-2.48.94-.48,0-.89-.11-1.24-.32ZM283.74,193.71c.67-1.04,1.19-2.2,1.55-3.47.65-2.35.97-4.73.97-7.13,0-1.3-.12-2.71-.36-4.25-.26-1.49-.83-2.83-1.69-4.03-.41-.58-.92-1.03-1.55-1.35-.62-.32-1.33-.49-2.12-.49v.04c0,2.16.14,5.42.43,9.79.29,4.34.43,7.63.43,9.86v3.42c.89-.55,1.67-1.35,2.34-2.39Z"/>
          <path class="cls-2" d="M291.62,197c0-.58.36-.86,1.08-.86h.43c.1.02.2.04.32.04.19,0,.33-.06.41-.18s.13-.34.13-.65c0-2.04-.12-4.82-.36-8.35-.22-3.67-.32-6.44-.32-8.32,0-.67.01-1.28.04-1.84l.04-1.84c0-.79-.04-1.45-.11-1.98-.26.1-.54.14-.83.14-.55,0-.83-.29-.83-.86,0-.29.17-.54.52-.76.35-.22.8-.37,1.35-.47,1.01-.17,1.86-.25,2.56-.25.29,0,.53.1.74.29.2.19.31.42.31.68s-.08.49-.23.68c-.16.19-.35.29-.59.29-.14,0-.26-.01-.36-.04h-.29c-.24,0-.41.05-.52.16s-.16.31-.16.59c0,2.54.16,6.05.47,10.51.29,4.68.43,8.2.43,10.55v1.37c.17-.02.41-.04.72-.04,1.01,0,1.51.42,1.51,1.26v.22l-.9.61s-.1,0-.22.02c-.12.01-.36.02-.72.02-.82.05-1.32.07-1.51.07-2.06,0-3.1-.36-3.1-1.08Z"/>
          <path class="cls-2" d="M307.64,191.24c-1.68-5.78-3.13-11.1-4.36-15.95v11.81c0,1.01.1,2.72.29,5.15.17,2.64.25,4.34.25,5.11,0,.22-.13.4-.4.56-.26.16-.56.23-.9.23-.5,0-.76-.19-.76-.58l.07-1.04c.05-.77.07-1.27.07-1.51,0-1.27-.07-3.29-.22-6.05-.14-2.81-.22-4.51-.22-5.11v-4.61c0-.74.04-1.85.11-3.31.1-1.27.14-2.38.14-3.31v-.22c0-1.2.26-1.8.79-1.8.31,0,.71.53,1.19,1.58.79,1.73,1.8,4.82,3.02,9.29.7,2.59,1.51,5.93,2.45,10.01-.02-.1.17.73.58,2.48l.04.18c0-2.33.02-4.42.07-6.26l.07-6.26v-10.66c.1-.6.48-.9,1.15-.9s.97.47.97,1.4v.22c-.14.29-.22.64-.22,1.04,0,1.46-.04,3.67-.11,6.62-.07,2.98-.11,5.21-.11,6.7v10.98c0,.38-.1.75-.31,1.1-.2.35-.45.52-.74.52-.48,0-1.46-2.47-2.95-7.42Z"/>
          <path class="cls-2" d="M322.47,191.24c-1.68-5.78-3.13-11.1-4.36-15.95v11.81c0,1.01.1,2.72.29,5.15.17,2.64.25,4.34.25,5.11,0,.22-.13.4-.4.56-.26.16-.56.23-.9.23-.5,0-.76-.19-.76-.58l.07-1.04c.05-.77.07-1.27.07-1.51,0-1.27-.07-3.29-.22-6.05-.14-2.81-.22-4.51-.22-5.11v-4.61c0-.74.04-1.85.11-3.31.1-1.27.14-2.38.14-3.31v-.22c0-1.2.26-1.8.79-1.8.31,0,.71.53,1.19,1.58.79,1.73,1.8,4.82,3.02,9.29.7,2.59,1.51,5.93,2.45,10.01-.02-.1.17.73.58,2.48l.04.18c0-2.33.02-4.42.07-6.26l.07-6.26v-10.66c.1-.6.48-.9,1.15-.9s.97.47.97,1.4v.22c-.14.29-.22.64-.22,1.04,0,1.46-.04,3.67-.11,6.62-.07,2.98-.11,5.21-.11,6.7v10.98c0,.38-.1.75-.31,1.1-.2.35-.45.52-.74.52-.48,0-1.46-2.47-2.95-7.42Z"/>
          <path class="cls-2" d="M332.23,198.16c-.41-.12-.61-.46-.61-1.01v-20.92c0-.41-.07-1.02-.22-1.84-.17-.74-.25-1.36-.25-1.84v-.11c.41-.67.71-1.1.9-1.3.34,0,.78-.05,1.33-.14.5-.1.95-.14,1.33-.14s.76.11,1.12.34c.36.23.54.5.54.81,0,.72-.55,1.08-1.66,1.08h-.5c-.14-.02-.31-.04-.5-.04-.22,0-.35.01-.4.04,0,.82.05,1.8.14,2.95l.07,1.01.07,1.98c0,.46-.04,1.15-.11,2.09l-.07,2.02.5-.11c.48-.14.88-.22,1.19-.22.26,0,.5.1.72.31.22.2.32.44.32.7,0,.29-.09.55-.27.77-.18.23-.4.34-.67.34l-.43-.04h-.47c-.36,0-.61.08-.76.25v11.12l2.02-.11c1.37,0,2.05.31,2.05.94v.14c-.14.29-.41.52-.79.7s-.76.29-1.12.34l-1.19.04h-1.12c-.46,0-.85-.06-1.19-.18Z"/>
          <path class="cls-2" d="M346.7,197.51v-.11c-.07-1.27-.29-2.69-.65-4.25-.36-1.56-.89-3.44-1.58-5.65-.53-1.66-.97-3.14-1.33-4.46v14.18c0,.38-.07.67-.2.85-.13.18-.39.27-.77.27-.29,0-.52-.09-.68-.27-.17-.18-.25-.41-.25-.7v-.29l.07-10.58c.05-3.12.07-6.64.07-10.55v-4.43c0-.29.06-.49.18-.59.12-.11.37-.16.76-.16.6,0,1.15.11,1.66.34.5.23.94.55,1.3.95.74.84,1.22,1.85,1.44,3.02.1.48.14,1.03.14,1.66,0,.36-.03.76-.09,1.19-.06.43-.1.71-.13.83-.05.24-.16.6-.32,1.08-.17.48-.28.79-.32.94l-.43,1.01-.36.94c.02.86.17,1.96.45,3.28.28,1.32.58,2.54.92,3.67.24.79.67,2.11,1.3,3.96l1.04,3.17v.07c0,.41-.04.76-.11,1.04-.07.38-.32.58-.76.58-.46,0-.9-.32-1.33-.97ZM344.29,180.01l.54-3.1c.02-.12.04-.29.04-.5,0-.7-.13-1.5-.4-2.41-.14-.43-.33-.8-.56-1.1-.23-.3-.46-.46-.7-.49l-.07,3.6c-.07,1.61-.11,2.86-.11,3.74,0,.84.01,1.39.04,1.66.34-.34.74-.8,1.22-1.4Z"/>
        </g>
        <path class="cls-2" d="M361.91,189.47c0-2.68.21-5.61.63-8.78s1.02-7.02,1.82-11.55l.33-1.91c.62-3.83.92-7.04.92-9.64,0-4.09-.66-6.14-1.98-6.14-.84,0-1.25.99-1.25,2.97,0,.48.15,1.67.46,3.56,0,.04-.11.18-.33.4-.75.66-1.3.99-1.65.99-1.23,0-1.85-1.47-1.85-4.42v-.66c0-1.14.12-2.12.36-2.94.24-.81.69-1.53,1.35-2.14.75-.62,1.67-.92,2.77-.92.97,0,1.8.18,2.51.53.7.35,1.28.84,1.72,1.45.7,1.06,1.14,2.62,1.32,4.69.04.48.07,1.34.07,2.57,0,3.87-.66,8.1-1.98,12.67-.57,1.89-1.06,4.28-1.45,7.16-.4,2.88-.59,5.86-.59,8.94,0,2.42.02,3.89.07,4.42-.79,0-1.23.04-1.32.13-.09.04-.2.07-.33.07-.88,0-1.41-.48-1.58-1.45ZM361.91,197.59c-.48-.44-.73-.99-.73-1.65,0-.62.26-1.2.79-1.75.53-.55,1.12-.83,1.78-.83.53,0,1.06.29,1.58.86.53.57.79,1.12.79,1.65,0,1.67-.88,2.51-2.64,2.51-.66,0-1.19-.26-1.58-.79Z"/>
      </g>
      <g>
        <path class="cls-2" d="M228.42,134.54l-3.53-3.55c.28-.29,7.28-7.96-2.94-25.15-6.31-10.62-2.66-15.38.27-19.21,2.95-3.86,5.51-7.19-1-18.36l4.32-2.52c7.58,13,4.78,18.52.65,23.91-2.72,3.56-4.52,5.91.06,13.62,12.35,20.76,2.59,30.84,2.17,31.26Z"/>
        <path class="cls-2" d="M291.93,68.79l-3.53-3.55c.28-.29,7.28-7.96-2.94-25.15-6.31-10.62-2.66-15.38.27-19.21,2.95-3.86,5.51-7.19-1-18.36l4.32-2.52c7.58,13,4.78,18.52.65,23.91-2.72,3.56-4.52,5.91.06,13.62,12.34,20.76,2.59,30.84,2.17,31.26Z"/>
        <path class="cls-2" d="M376.57,110.42l-3.53-3.55c.28-.29,7.28-7.96-2.94-25.15-6.31-10.62-2.66-15.38.27-19.21,2.95-3.86,5.51-7.19-1-18.36l4.32-2.52c7.58,13,4.78,18.52.65,23.91-2.72,3.56-4.52,5.91.06,13.62,12.34,20.76,2.59,30.84,2.17,31.26Z"/>
        <g>
          <circle class="cls-1" cx="249.74" cy="34.14" r="15.93"/>
          <path class="cls-1" d="M249.74,52.56c-10.16,0-18.42-8.27-18.42-18.43s8.27-18.43,18.42-18.43,18.42,8.27,18.42,18.43-8.27,18.43-18.42,18.43ZM249.74,20.71c-7.4,0-13.42,6.02-13.42,13.43s6.02,13.43,13.42,13.43,13.42-6.02,13.42-13.43-6.02-13.43-13.42-13.43Z"/>
        </g>
        <g>
          <circle class="cls-1" cx="337.98" cy="18.54" r="15.93"/>
          <path class="cls-1" d="M337.98,36.97c-10.16,0-18.42-8.27-18.42-18.42S327.82.12,337.98.12s18.43,8.27,18.43,18.43-8.27,18.42-18.43,18.42ZM337.98,5.12c-7.4,0-13.42,6.02-13.42,13.43s6.02,13.42,13.42,13.42,13.43-6.02,13.43-13.42-6.02-13.43-13.43-13.43Z"/>
        </g>
        <g>
          <circle class="cls-1" cx="297.07" cy="103.56" r="15.93"/>
          <path class="cls-1" d="M297.07,121.98c-10.16,0-18.42-8.27-18.42-18.43s8.27-18.43,18.42-18.43,18.43,8.27,18.43,18.43-8.27,18.43-18.43,18.43ZM297.07,90.13c-7.4,0-13.42,6.02-13.42,13.43s6.02,13.43,13.42,13.43,13.43-6.02,13.43-13.43-6.02-13.43-13.43-13.43Z"/>
        </g>
      </g>
    </g>
  </g>
</svg>